<svg id="visual" viewBox="0 0 900 600" width="900" height="600" xmlns="http://www.w3.org/2000/svg" xmlns:xlink="http://www.w3.org/1999/xlink" version="1.1"><path d="M0 542L6.3 530.8C12.7 519.7 25.3 497.3 37.8 493.7C50.3 490 62.7 505 75.2 503.2C87.7 501.3 100.3 482.7 112.8 468.7C125.3 454.7 137.7 445.3 150.2 460.7C162.7 476 175.3 516 187.8 533.5C200.3 551 212.7 546 225.2 531.3C237.7 516.7 250.3 492.3 262.8 498.2C275.3 504 287.7 540 300.2 554.7C312.7 569.3 325.3 562.7 337.8 554C350.3 545.3 362.7 534.7 375.2 513.2C387.7 491.7 400.3 459.3 412.8 450.8C425.3 442.3 437.7 457.7 450 483.8C462.3 510 474.7 547 487.2 559.8C499.7 572.7 512.3 561.3 525 539.7C537.7 518 550.3 486 562.8 467.5C575.3 449 587.7 444 600.2 431.5C612.7 419 625.3 399 637.8 414.5C650.3 430 662.7 481 675.2 495.2C687.7 509.3 700.3 486.7 712.8 487C725.3 487.3 737.7 510.7 750.2 508C762.7 505.3 775.3 476.7 787.8 472.7C800.3 468.7 812.7 489.3 825.2 506.7C837.7 524 850.3 538 862.8 529.8C875.3 521.7 887.7 491.3 893.8 476.2L900 461L900 601L893.8 601C887.7 601 875.3 601 862.8 601C850.3 601 837.7 601 825.2 601C812.7 601 800.3 601 787.8 601C775.3 601 762.7 601 750.2 601C737.7 601 725.3 601 712.8 601C700.3 601 687.7 601 675.2 601C662.7 601 650.3 601 637.8 601C625.3 601 612.7 601 600.2 601C587.7 601 575.3 601 562.8 601C550.3 601 537.7 601 525 601C512.3 601 499.7 601 487.2 601C474.7 601 462.3 601 450 601C437.7 601 425.3 601 412.8 601C400.3 601 387.7 601 375.2 601C362.7 601 350.3 601 337.8 601C325.3 601 312.7 601 300.2 601C287.7 601 275.3 601 262.8 601C250.3 601 237.7 601 225.2 601C212.7 601 200.3 601 187.8 601C175.3 601 162.7 601 150.2 601C137.7 601 125.3 601 112.8 601C100.3 601 87.7 601 75.2 601C62.7 601 50.3 601 37.8 601C25.3 601 12.7 601 6.3 601L0 601Z" fill="#f0e1e1" stroke-linecap="round" stroke-linejoin="miter"></path></svg>