<svg width="1440" height="226" viewBox="0 0 1440 226" fill="none" xmlns="http://www.w3.org/2000/svg">
<path fill-rule="evenodd" clip-rule="evenodd" d="M1440 23L1430.77 43C1419.69 62 1399.38 101 1379.08 105C1360.62 109 1340.31 78 1320 90C1299.69 101 1279.38 156 1259.08 175C1240.62 195 1220.31 179 1200 160C1179.69 140 1159.38 117 1139.08 117C1120.62 117 1100.31 140 1080 160C1059.69 179 1039.38 195 1019.08 195C1000.62 195 980.308 179 960 148C939.692 117 919.385 70 899.077 62C880.615 55 860.308 86 840 117C819.692 148 799.385 179 779.077 172C760.615 164 740.308 117 720 113C699.692 109 679.385 148 659.077 140C640.615 133 620.308 78 600 74C579.692 70 559.385 117 539.077 125C520.615 133 500.308 101 480 94C459.692 86 439.385 101 419.077 105C400.615 109 380.308 101 360 117C339.692 133 319.385 172 299.077 195C280.615 218 260.308 226 240 226C219.692 226 199.385 218 179.077 179C160.615 140 140.308 70 120 74C99.6923 78 79.3846 156 59.0769 191C40.6154 226 20.3077 218 9.23071 214L0 211V0H9.23071C20.3077 0 40.6154 0 59.0769 0C79.3846 0 99.6923 0 120 0C140.308 0 160.615 0 179.077 0C199.385 0 219.692 0 240 0C260.308 0 280.615 0 299.077 0C319.385 0 339.692 0 360 0C380.308 0 400.615 0 419.077 0C439.385 0 459.692 0 480 0C500.308 0 520.615 0 539.077 0C559.385 0 579.692 0 600 0C620.308 0 640.615 0 659.077 0C679.385 0 699.692 0 720 0C740.308 0 760.615 0 779.077 0C799.385 0 819.692 0 840 0C860.308 0 880.615 0 899.077 0C919.385 0 939.692 0 960 0C980.308 0 1000.62 0 1019.08 0C1039.38 0 1059.69 0 1080 0C1100.31 0 1120.62 0 1139.08 0C1159.38 0 1179.69 0 1200 0C1220.31 0 1240.62 0 1259.08 0C1279.38 0 1299.69 0 1320 0C1340.31 0 1360.62 0 1379.08 0C1399.38 0 1419.69 0 1430.77 0H1440V23Z" fill="white"/>
</svg>
